<svg xmlns="http://www.w3.org/2000/svg" viewBox="0 0 120 120" fill="none">
  <path d="M58 17c3 7 8 10 8 16 0 5-4 9-9 9s-9-4-9-9c0-6 7-10 10-16Z" stroke="#1c130f" stroke-width="4" stroke-linecap="round" stroke-linejoin="round"/>
  <path d="M58 42v17" stroke="#1c130f" stroke-width="4" stroke-linecap="round"/>
  <path d="M28 61c9-8 16-4 24 0 7 4 15 8 25 0 8-6 15-5 21 0" stroke="#1c130f" stroke-width="4" stroke-linecap="round"/>
  <path d="M25 63h70c5 0 9 4 9 9v25H16V72c0-5 4-9 9-9Z" stroke="#1c130f" stroke-width="4" stroke-linejoin="round"/>
  <path d="M22 83c10 7 18 7 29 0 10-6 19-6 29 0 8 5 15 6 24 1" stroke="#1c130f" stroke-width="4" stroke-linecap="round"/>
  <path d="M14 101h92" stroke="#1c130f" stroke-width="4" stroke-linecap="round"/>
</svg>
